<?xml version="1.0" encoding="UTF-8" standalone="no"?>
<!DOCTYPE svg PUBLIC "-//W3C//DTD SVG 1.1//EN"
 "http://www.w3.org/Graphics/SVG/1.1/DTD/svg11.dtd">
<!-- Generated by graphviz version 2.38.0 (20140413.2041)
 -->
<!-- Title: Guix name Pages: 1 -->
<svg width="231pt" height="218pt"
 viewBox="0.00 0.00 230.59 218.00" xmlns="http://www.w3.org/2000/svg" xmlns:xlink="http://www.w3.org/1999/xlink">
<g id="graph0" class="graph" transform="scale(1 1) rotate(0) translate(4 214)">
<title>Guix name</title>
<polygon fill="white" stroke="none" points="-4,4 -4,-214 226.594,-214 226.594,4 -4,4"/>
<!-- package -->
<g id="node1" class="node"><title>package</title>
<ellipse fill="none" stroke="black" cx="141.594" cy="-192" rx="44.393" ry="18"/>
<text text-anchor="middle" x="141.594" y="-188.3" font-family="Helvetica,sans-Serif" font-size="14.00">package</text>
</g>
<!-- package request -->
<g id="node2" class="node"><title>package request</title>
<ellipse fill="none" stroke="black" cx="67.594" cy="-105" rx="67.6881" ry="18"/>
<text text-anchor="middle" x="67.594" y="-101.3" font-family="Times,serif" font-size="14.00">package request</text>
</g>
<!-- package&#45;&gt;package request -->
<g id="edge1" class="edge"><title>package&#45;&gt;package request</title>
<path fill="none" stroke="darkviolet" d="M127.326,-174.611C116.442,-162.11 101.274,-144.687 88.9468,-130.527"/>
<polygon fill="darkviolet" stroke="darkviolet" points="91.2766,-127.873 82.0706,-122.629 85.9971,-132.469 91.2766,-127.873"/>
<text text-anchor="middle" x="132.094" y="-144.8" font-family="Times,serif" font-size="14.00">requests</text>
</g>
<!-- requested package -->
<g id="node3" class="node"><title>requested package</title>
<ellipse fill="none" stroke="black" cx="134.594" cy="-18" rx="75.2868" ry="18"/>
<text text-anchor="middle" x="134.594" y="-14.3" font-family="Times,serif" font-size="14.00">requested package</text>
</g>
<!-- package&#45;&gt;requested package -->
<g id="edge3" class="edge"><title>package&#45;&gt;requested package</title>
<path fill="none" stroke="#00cdcd" d="M151.101,-174.064C153.746,-168.486 156.258,-162.137 157.594,-156 165.875,-117.969 154.575,-73.4433 145.091,-45.7248"/>
<polygon fill="#00cdcd" stroke="#00cdcd" points="148.263,-44.2019 141.589,-35.9729 141.674,-46.5674 148.263,-44.2019"/>
<text text-anchor="middle" x="191.594" y="-101.3" font-family="Times,serif" font-size="14.00">depends on</text>
</g>
<!-- package request&#45;&gt;requested package -->
<g id="edge2" class="edge"><title>package request&#45;&gt;requested package</title>
<path fill="none" stroke="darkviolet" d="M80.831,-87.2067C90.5582,-74.8663 103.936,-57.8941 114.914,-43.9675"/>
<polygon fill="darkviolet" stroke="darkviolet" points="117.943,-45.7786 121.384,-35.7584 112.445,-41.4453 117.943,-45.7786"/>
<text text-anchor="middle" x="120.094" y="-57.8" font-family="Times,serif" font-size="14.00">yelds</text>
</g>
</g>
</svg>
